<?xml version="1.0" ?>
<!-- Uploaded to: SVG Repo, www.svgrepo.com, Generator: SVG Repo Mixer Tools -->
<svg width="800px" height="800px" viewBox="0 0 32 32" xmlns="http://www.w3.org/2000/svg">
<title/>
<g id="Fence">
<path d="M4.534,11.125a.7925.7925,0,0,0-.884.754V27.375H5.301V11.879A.7658.7658,0,0,0,4.534,11.125Z" style="fill:#444"/>
<path d="M12.217,11.125a.8078.8078,0,0,0-.884.754V27.375h1.651V11.879A.7745.7745,0,0,0,12.217,11.125Z" style="fill:#444"/>
<path d="M19.9,11.125a.8078.8078,0,0,0-.884.754V27.375h1.651V11.879A.7745.7745,0,0,0,19.9,11.125Z" style="fill:#444"/>
<path d="M27.596,11.125a.8046.8046,0,0,0-.897.754V27.375H28.35V11.879A.7545.7545,0,0,0,27.596,11.125Z" style="fill:#444"/>
<rect height="3.068" style="fill:#444" width="3.432" x="6.601" y="13.686"/>
<rect height="3.068" style="fill:#444" width="3.432" x="14.284" y="13.686"/>
<rect height="3.068" style="fill:#444" width="3.432" x="21.967" y="13.686"/>
<rect height="3.068" style="fill:#444" width="3.432" x="6.601" y="22.435"/>
<rect height="3.068" style="fill:#444" width="3.432" x="14.284" y="22.435"/>
<rect height="3.068" style="fill:#444" width="3.432" x="21.967" y="22.435"/>
</g>
</svg>